<svg width="38" height="38" viewBox="0 0 38 38" fill="none" xmlns="http://www.w3.org/2000/svg">
<path d="M25.8807 15.9476C25.8807 15.9002 25.8671 15.8595 25.8536 15.8188C25.8468 15.8052 25.8468 15.7849 25.84 15.7713C25.8129 15.717 25.7857 15.6628 25.7383 15.6221L22.2993 12.156C22.2586 12.1153 22.2044 12.0814 22.1501 12.0543C22.1366 12.0475 22.1162 12.0407 22.1026 12.0339C22.0619 12.0203 22.0145 12.0136 21.9738 12.0068C21.9602 12.0068 21.9534 12 21.9399 12H16.5339C16.2558 12 16.0252 12.2306 16.0252 12.5087V14.7403H13.5087C13.2306 14.7403 13 14.9709 13 15.249V26.0813C13 26.3594 13.2306 26.59 13.5087 26.59H22.3536C22.6317 26.59 22.8623 26.3594 22.8623 26.0813V23.8497H25.3788C25.6569 23.8497 25.8875 23.6191 25.8875 23.341V15.9816C25.8875 15.968 25.8807 15.9612 25.8807 15.9476ZM22.4486 14.7674V13.75L22.5503 13.8517L24.1646 15.4796L22.8555 15.4864H22.4486V14.7674ZM21.8449 25.5726H14.0174V15.7645H16.0252V23.3478C16.0252 23.6259 16.2558 23.8565 16.5339 23.8565H21.8381V25.5726H21.8449ZM24.8701 22.8323H22.8623H21.8449H17.0494V15.7645V14.7471V13.0242H21.4379V14.7471V15.7645V16.0019C21.4379 16.1376 21.4922 16.2664 21.5871 16.3614C21.655 16.4292 21.7499 16.4699 21.8449 16.4903C21.8788 16.4971 21.9127 16.5106 21.9466 16.5106L22.8623 16.5038L24.8701 16.4903V22.8323Z" fill="white"/>
</svg>
